
<svg width="81" height="126" viewBox="0 0 81 126" fill="none" xmlns="http://www.w3.org/2000/svg">
<path d="M3.43311 122.908C1.59977 121.263 0.683105 119.314 0.683105 117.062C0.683105 114.815 1.59977 112.869 3.43311 111.223L57.1498 63L3.24977 14.6125C1.53866 13.0764 0.683105 11.1563 0.683105 8.85213C0.683105 6.54796 1.59977 4.57296 3.43311 2.92712C5.26644 1.28129 7.43711 0.458374 9.94511 0.458374C12.4482 0.458374 14.6164 1.28129 16.4498 2.92712L78.0498 58.3917C78.7831 59.05 79.3038 59.7632 79.6118 60.5313C79.9149 61.2993 80.0664 62.1223 80.0664 63C80.0664 63.8778 79.9149 64.7007 79.6118 65.4688C79.3038 66.2369 78.7831 66.95 78.0498 67.6084L16.2664 123.073C14.5553 124.609 12.4482 125.377 9.94511 125.377C7.43711 125.377 5.26644 124.554 3.43311 122.908Z" fill="#901C1C"/>
</svg>
